<?xml version="1.0" standalone="no"?>
<!DOCTYPE svg PUBLIC "-//W3C//DTD SVG 20010904//EN"
 "http://www.w3.org/TR/2001/REC-SVG-20010904/DTD/svg10.dtd">
<svg version="1.0" xmlns="http://www.w3.org/2000/svg"
 width="128.000000pt" height="128.000000pt" viewBox="0 0 128.000000 128.000000"
 preserveAspectRatio="xMidYMid meet">
<metadata>
Created by potrace 1.11, written by Peter Selinger 2001-2013
</metadata>
<g transform="translate(0.000000,128.000000) scale(0.100000,-0.100000)"
fill="#000000" stroke="none">
<path d="M790 1136 c-19 -13 -55 -34 -80 -48 -25 -14 -122 -71 -217 -127 -95
-55 -177 -101 -183 -101 -6 0 -22 7 -35 16 -28 18 -22 20 -162 -61 -46 -26
-83 -54 -83 -61 0 -8 10 -28 22 -44 21 -29 21 -30 3 -44 -20 -14 -29 -46 -14
-46 5 0 9 -7 9 -15 0 -8 4 -15 9 -15 5 0 12 -7 15 -16 5 -12 3 -14 -7 -8 -7 5
-4 1 6 -8 11 -10 17 -24 14 -31 -3 -8 5 -14 21 -15 33 -3 38 -8 23 -26 -9 -11
-8 -15 4 -20 11 -4 14 -2 9 7 -4 6 2 3 13 -8 11 -11 18 -27 15 -35 -3 -8 -2
-12 2 -8 10 8 36 -14 29 -25 -2 -4 3 -7 11 -7 9 0 13 -7 11 -19 -2 -10 7 -29
20 -43 13 -14 22 -29 19 -32 -2 -3 -1 -4 3 -1 3 3 13 -1 22 -7 9 -7 3 3 -14
22 -16 19 -34 38 -40 42 -7 5 -6 8 0 8 13 0 79 -78 80 -94 2 -21 17 -46 25
-41 20 12 55 -46 52 -85 0 -3 9 -7 20 -7 20 -2 20 -1 2 12 -11 7 -16 17 -11
21 4 4 7 2 7 -4 0 -7 9 -12 21 -12 13 0 18 -4 13 -12 -6 -10 -4 -10 7 0 7 6
17 12 22 12 4 0 5 -6 1 -12 -4 -7 2 -5 13 5 11 9 23 14 28 10 4 -5 5 -2 1 5
-6 11 -11 11 -24 0 -15 -12 -16 -11 -3 5 7 9 18 17 24 17 5 0 15 7 22 17 9 13
14 13 20 3 6 -9 4 -11 -5 -5 -9 5 -11 4 -6 -4 6 -8 12 -9 20 -2 7 6 17 7 21 3
5 -4 5 -1 1 6 -4 7 -13 9 -19 5 -7 -3 -3 3 7 15 20 23 32 30 21 12 -13 -20 9
-9 33 18 16 18 22 21 18 9 -3 -11 -2 -16 4 -12 6 3 10 13 10 21 0 11 4 12 19
5 17 -9 18 -8 13 12 -5 20 -4 21 13 7 15 -12 17 -12 10 -1 -6 11 -3 13 14 8
18 -4 20 -3 11 8 -8 9 -8 15 0 20 5 3 10 1 10 -5 0 -7 5 -6 14 2 8 7 11 18 8
23 -3 6 2 4 11 -4 14 -11 18 -10 28 13 7 14 16 23 21 20 4 -3 6 -10 3 -15 -10
-15 2 -10 16 8 9 11 10 14 2 9 -9 -5 -11 -2 -7 8 3 8 12 12 20 9 8 -3 14 1 14
8 0 11 3 11 10 -1 7 -10 10 -11 11 -2 1 10 3 19 8 37 0 2 13 0 27 -6 24 -8 25
-8 14 6 -8 10 -9 15 -1 15 18 0 26 -4 23 -13 -1 -5 2 -6 7 -2 6 3 8 11 5 18
-2 8 15 28 41 46 25 18 45 29 45 24 0 -4 -18 -19 -40 -32 -22 -14 -38 -27 -35
-29 2 -3 11 0 18 6 8 7 18 8 22 4 5 -4 5 -1 1 6 -6 11 5 17 27 13 4 0 7 4 7
10 0 5 6 7 13 3 6 -4 9 -4 5 1 -10 10 10 47 22 40 5 -3 12 -1 15 5 4 6 15 8
25 5 10 -3 21 -1 25 4 3 6 0 8 -8 5 -8 -3 -18 1 -23 8 -4 7 -4 10 1 6 4 -4 14
-3 22 3 7 6 13 8 13 4 0 -4 8 1 18 12 9 10 13 14 9 7 -5 -7 -3 -15 4 -20 7 -4
9 -3 6 2 -3 5 8 25 24 43 37 43 38 81 2 119 -38 39 -119 127 -172 186 -24 26
-40 51 -35 55 14 10 54 87 54 104 0 35 -43 30 -98 -11 l-34 -24 -52 51 c-28
28 -58 51 -66 50 -8 0 -31 -10 -50 -23z m-683 -608 c-3 -8 -6 -5 -6 6 -1 11 2
17 5 13 3 -3 4 -12 1 -19z m696 -173 c-3 -9 -8 -14 -10 -11 -3 3 -2 9 2 15 9
16 15 13 8 -4z"/>
<path d="M358 183 c7 -3 16 -2 19 1 4 3 -2 6 -13 5 -11 0 -14 -3 -6 -6z"/>
</g>
</svg>
